<?xml version="1.0" encoding="UTF-8" standalone="no"?>
<!-- Created with Inkscape (http://www.inkscape.org/) -->

<svg
   version="1.1"
   id="svg1"
   width="620"
   height="520"
   viewBox="0 0 620 520"
   sodipodi:docname="26b.svg"
   inkscape:version="1.3.1 (6036e22fae, 2023-11-19, custom)"
   xmlns:inkscape="http://www.inkscape.org/namespaces/inkscape"
   xmlns:sodipodi="http://sodipodi.sourceforge.net/DTD/sodipodi-0.dtd"
   xmlns="http://www.w3.org/2000/svg"
   xmlns:svg="http://www.w3.org/2000/svg">
  <defs
     id="defs1" />
  <sodipodi:namedview
     id="namedview1"
     pagecolor="#ffffff"
     bordercolor="#000000"
     borderopacity="0.25"
     inkscape:showpageshadow="2"
     inkscape:pageopacity="0.0"
     inkscape:pagecheckerboard="0"
     inkscape:deskcolor="#d1d1d1"
     showgrid="false"
     inkscape:zoom="1.25"
     inkscape:cx="310"
     inkscape:cy="259.6"
     inkscape:window-width="1920"
     inkscape:window-height="1031"
     inkscape:window-x="0"
     inkscape:window-y="25"
     inkscape:window-maximized="1"
     inkscape:current-layer="layer1" />
  <g
     inkscape:groupmode="layer"
     id="layer1"
     inkscape:label="Layer 1">
    <path
       id="path1"
       style="fill:#000000"
       d="M 289.1875 48.189453 C 279.79815 48.327268 270.13738 48.679147 260.34375 49.248047 C 224.73143 51.316725 207.55887 53.567131 178 60.039062 C 150.04186 66.160512 135.93309 68.487269 109.33398 71.363281 C 72.906032 75.302032 59.514138 80.064061 46 93.890625 C 36.302307 103.81251 31.461584 112.46406 27.970703 126.11328 C 20.999433 153.37068 28.739972 187.46159 46.259766 206.66602 C 55.979058 217.31986 57.254667 220.55381 58.541016 237.78906 C 60.06499 258.20814 61.301504 260.18295 75.851562 265.42383 C 86.408254 269.2263 89.518538 273.61008 96.847656 295.02148 C 103.93015 315.71238 116.17985 340.08134 130.24023 361.44727 C 145.3615 384.42525 146.39551 386.80794 143.69141 392.47852 C 142.56683 394.83678 136.9792 401.84498 131.27539 408.05078 C 118.07435 422.41367 115.67338 426.23154 117.58984 429.8125 C 120.54038 435.32563 131.49134 445.70613 137.64844 448.82617 C 150.18658 455.17974 160.97281 454.33425 171.31641 446.1875 C 187.05166 433.7942 205.41757 420.66767 210.95508 417.85742 C 218.41436 414.07187 227.19289 413.73536 240 416.74023 C 255.07677 420.27764 259.3515 423.09212 265.41406 433.47266 C 272.83257 446.17489 274.67283 447.15783 291.15234 447.23633 C 304.95233 447.30203 313.05102 445.55432 316.12891 441.8457 C 317.05008 440.73575 318.25687 436.47731 318.8125 432.38281 C 319.36814 428.28832 320.64081 424.12091 321.64062 423.12109 C 324.54446 420.21726 342.35861 417.02432 352.00977 417.67773 C 362.21086 418.36838 366.95055 420.55469 378.66602 429.97656 C 388.46009 437.8532 393.69165 441.01172 412.66602 450.50781 C 419.99934 454.17792 426.31027 457.21601 426.68945 457.25781 C 427.06862 457.29964 433.87647 450.81425 441.81836 442.84766 L 456.25781 428.36328 L 445.93164 414.51562 C 435.09243 399.98077 430.74411 392.0929 430.69531 386.86914 C 430.64529 381.51988 434.15394 375.94012 450.12109 355.97656 C 470.52086 330.47097 475.84185 321.14371 484.06055 296.48438 C 491.13441 275.26005 495.80515 266.88176 502.48828 263.42578 C 512.28361 258.36042 521.33398 243.12195 521.33398 231.69531 C 521.33398 225.04008 523.5966 220.81152 532.70898 210.44531 C 560.4386 178.90022 567.19012 142.74349 551.25 111.14258 C 544.55896 97.877751 535.14045 87.711161 524.94336 82.75 C 512.90594 76.89347 504.31136 75.075211 470.75 71.28125 C 454.20435 69.410839 435.86666 66.758907 430 65.388672 C 416.70715 62.283956 389.6978 57.150176 362.66602 52.587891 C 343.08479 49.283074 317.35555 47.77601 289.1875 48.189453 z M 95.917969 129.92578 C 104.21269 129.84242 107.97759 136.40246 107.99219 150.50781 C 107.99628 154.45364 108.94658 163.63502 110.10352 170.91211 C 111.74732 181.25159 111.85784 184.5656 110.60742 186.07227 C 109.72735 187.13268 107.69762 188 106.09766 188 C 99.714921 188 83.192769 174.04873 78.251953 164.48633 C 69.573383 147.68993 74.372428 134.78683 90.837891 130.64844 C 92.689544 130.18305 94.381909 129.94122 95.917969 129.92578 z M 492.63867 136 C 498.80431 136 500.69745 136.57636 503.39453 139.27344 C 511.42177 147.30068 503.74332 165.75839 487.4668 177.5625 C 478.8744 183.7939 474.97376 182.37048 471.97266 171.90625 C 471.20941 169.24494 471.58639 166.9104 473.29492 163.72266 C 474.60949 161.26997 476.71885 154.61703 477.98242 148.9375 C 480.63673 137.00694 481.77632 136 492.63867 136 z " />
    <path
       style="fill:#6c5d53"
       d="m 335.33333,123.98677 c 32.63814,-1.47008 51.19394,-4.34938 69.68381,-10.81281 C 417.35251,108.86193 428,103.37211 428,101.32404 c 0,-1.808866 4.72604,-4.034485 13.77495,-6.486989 4.40439,-1.193711 8.22364,-2.820819 8.48721,-3.615795 0.47484,-1.432195 -33.61897,-12.449897 -54.92883,-17.750714 -15.62233,-3.886047 -45.67763,-9.244388 -64,-11.410092 -50.93579,-6.020614 -99.60914,-2.664015 -153.26963,10.569739 -30.90008,7.620579 -48.73037,14.279513 -48.73037,18.198935 0,0.788874 1.73937,3.059132 3.86527,5.045018 12.54939,11.722878 55.73833,26.144938 84.13473,28.095068 21.53504,1.47892 85.34452,1.48841 118,0.0176 z"
       id="path8" />
    <path
       style="fill:#6c5d53"
       d="m 497.40849,241.03618 c 2.15867,-2.36343 3.92484,-5.0559 3.92484,-5.98327 0,-0.92737 -2.4,-3.20118 -5.33333,-5.05291 -2.93333,-1.85173 -5.33333,-3.98905 -5.33333,-4.74961 0,-3.40702 4.30749,-8.99717 10.61986,-13.78217 9.14667,-6.9335 30.07921,-29.30563 34.43347,-36.80155 1.91691,-3.3 4.05611,-6.39228 4.75377,-6.87172 2.11373,-1.45259 0.0221,-30.17475 -2.86481,-39.33931 -3.2036,-10.16994 -6.77986,-15.29842 -14.25402,-20.44077 -8.47447,-5.8306 -18.18305,-7.85471 -39.76388,-8.290277 -17.71105,-0.357461 -19.35183,-0.17512 -25.59106,2.843947 -3.71232,1.79634 -10.80275,7.4085 -16,12.6642 -7.32646,7.40887 -9.87271,11.06013 -11.8418,16.9809 -4.82355,14.50372 1.55583,26.46226 14.10892,26.44804 7.56585,-0.009 16.69204,-7.36578 15.1728,-12.23176 -0.30279,-0.96979 -0.90154,-3.3713 -1.33056,-5.33668 -0.42902,-1.96539 -1.72475,-4.51815 -2.87941,-5.67281 -1.75534,-1.75535 -1.84476,-2.87084 -0.54567,-6.80713 2.72382,-8.25325 5.84388,-9.2656 28.58013,-9.27323 19.99448,-0.007 20.10434,0.01 29.61746,4.46953 10.81407,5.06954 11.07299,5.53373 11.09992,19.90008 0.0145,7.72217 -0.84335,11.9525 -4.19081,20.66667 -5.17496,13.4715 -7.71467,16.9653 -23.9571,32.95698 -7.0759,6.96667 -13.89893,14.71396 -15.16229,17.2162 -3.11879,6.17719 -4.15835,18.91831 -1.97385,24.19215 3.20455,7.73648 12.67908,8.89834 18.71075,2.2945 z"
       id="path5" />
    <path
       style="fill:#6c5d53"
       d="m 92.424301,248.51372 c 7.785139,-3.71247 12.482809,-14.48264 9.456409,-21.68032 -0.99155,-2.35821 -9.101049,-12.17495 -18.021099,-21.81498 -25.865453,-27.95316 -29.270369,-34.83798 -29.633941,-59.9205 -0.223988,-15.45268 -0.197164,-15.59858 3.597752,-19.56991 2.102882,-2.20064 6.902882,-5.3947 10.666666,-7.09792 5.886689,-2.66389 8.986556,-3.09676 22.176579,-3.09676 14.002093,0 16.024753,0.32375 23.297163,3.72895 11.48499,5.37768 12.71023,6.81096 12.66122,14.81104 -0.0296,4.83417 -0.98896,8.33146 -3.3265,12.12668 -4.1809,6.78809 -4.14068,9.14404 0.21459,12.56989 4.42555,3.48114 11.13442,3.54439 15.45514,0.14572 5.07346,-3.99079 9.48407,-15.35147 8.456,-21.78067 -2.06386,-12.90668 -14.58063,-30.31176 -25.75648,-35.81545 -6.0351,-2.972063 -7.65775,-3.118785 -34.334467,-3.104572 -19.732765,0.01051 -28.856764,0.500936 -30.901744,1.660994 -4.238226,2.404218 -14.526483,19.737168 -17.160748,28.911248 -3.052754,10.6315 -2.099677,28.93915 2.086497,40.07951 5.890354,15.67556 18.064484,31.85741 36.932672,49.09088 2.400433,2.19246 4.478314,5.69961 4.988692,8.42016 0.765087,4.07827 0.280246,5.32061 -3.868662,9.91296 -2.608855,2.88769 -4.743373,5.87589 -4.743373,6.64044 0,2.66574 6.570484,7.93556 9.894158,7.93556 1.841787,0 5.380351,-0.96883 7.863476,-2.15295 z"
       id="path4" />
    <path
       style="fill:#6c5d53"
       d="m 306.89501,431.12668 c 1.34108,-1.21365 2.43832,-3.89982 2.43832,-5.96926 0,-4.70384 -3.99486,-7.50889 -12.31878,-8.64981 -15.89871,-2.17916 -24.79365,5.16784 -16.40849,13.553 2.90927,2.90926 4.41539,3.27272 13.56168,3.27272 7.70288,0 10.90181,-0.55463 12.72727,-2.20665 z"
       id="path3" />
    <path
       style="fill:#6c5d53"
       d="m 422.70546,432.63156 c 1.21757,-1.10189 2.98634,-4.34437 3.93061,-7.20551 1.69875,-5.14726 1.65338,-5.28403 -4.30581,-12.98073 -3.31246,-4.27826 -7.98521,-11.37865 -10.3839,-15.77865 -2.39869,-4.4 -5.24675,-9.36503 -6.32903,-11.0334 -1.08229,-1.66837 -2.34737,-4.88935 -2.8113,-7.15773 -0.72875,-3.56318 -0.11532,-4.86611 4.50856,-9.57629 2.94364,-2.99858 8.65208,-7.92126 12.68541,-10.93929 4.03333,-3.01804 8.23333,-7.24368 9.33333,-9.39031 1.1,-2.14664 3.8,-6.37068 6,-9.38675 2.2,-3.01608 5.04797,-7.21608 6.32881,-9.33334 1.28084,-2.11726 4.11136,-6.24956 6.29005,-9.18289 2.17869,-2.93334 4.67175,-7.43334 5.54015,-10 0.8684,-2.56667 4.26015,-9.09375 7.53722,-14.50462 5.56973,-9.19633 11.44583,-24.98721 12.71239,-34.16205 0.30573,-2.21473 -0.48945,-6.08281 -1.78166,-8.66667 -1.45462,-2.90859 -2.69433,-9.68972 -3.2907,-18 -0.68214,-9.50523 -2.28107,-17.46847 -5.56912,-27.7361 -4.08347,-12.75151 -5.52211,-15.45991 -12.54825,-23.62344 -4.36479,-5.07137 -9.42449,-10.29012 -11.24376,-11.59723 -6.29149,-4.52028 -19.30131,-23.90469 -22.1635,-33.02322 l -2.72663,-8.68667 -6.87583,0.005 c -3.78171,0.003 -16.09013,1.20645 -27.35205,2.67498 -53.1742,6.9338 -146.42494,6.27001 -196.08411,-1.39578 -22.78473,-3.51724 -23.0557,-3.50424 -21.86498,1.0492 2.19362,8.38866 1.15654,12.79843 -5.5345,23.53324 -3.63467,5.83131 -8.38253,11.61916 -10.63613,12.96592 -2.2389,1.33797 -5.48416,4.52771 -7.21169,7.08831 -1.72753,2.5606 -4.42753,5.04691 -6,5.52513 -4.07098,1.23806 -7.60572,4.59055 -9.72198,9.22073 -1.00552,2.2 -3.08693,5.57911 -4.62535,7.50912 -4.9444,6.20298 -6.93109,23.04063 -3.71627,31.49625 1.98648,5.22483 0.26801,12.46869 -4.83814,20.39424 -5.85169,9.08276 -7.01041,16.74103 -4.15458,27.45861 1.2085,4.53538 2.19728,9.52156 2.19728,11.08041 0,1.55885 1.22269,5.23095 2.71709,8.16022 1.49441,2.92927 2.38462,5.86391 1.97825,6.52142 -0.40636,0.65751 -0.19707,1.5303 0.46509,1.93954 0.66217,0.40924 1.58369,2.76833 2.04783,5.24242 0.46414,2.47408 2.03216,5.5737 3.48448,6.88804 1.45233,1.31433 2.64059,2.95685 2.64059,3.65004 0,1.9392 19.7144,24.26625 33.22832,37.63189 6.65776,6.58471 12.10502,12.44918 12.10502,13.03215 0,0.58297 -2.1,4.1128 -4.66667,7.84408 -2.56667,3.73128 -4.66667,7.57988 -4.66667,8.55246 0,0.97258 -3.49272,6.45525 -7.7616,12.18372 -4.26888,5.72847 -9.11187,12.65577 -10.7622,15.39402 -3.25992,5.40888 -3.33093,10.94841 -0.14286,11.14419 1.1,0.0676 4.89974,1.41756 8.44387,3 7.94718,3.54841 12.31951,3.62125 17.77279,0.29608 5.33732,-3.25446 20.34934,-20.77838 26.0799,-30.44375 2.40356,-4.05392 5.03073,-8.49238 5.83816,-9.86324 0.80743,-1.37085 1.75624,-2.78065 2.10847,-3.13287 0.35222,-0.35223 4.79159,0.80882 9.86527,2.58011 21.1592,7.38694 54.61365,11.79995 89.89154,11.85768 27.17449,0.0445 41.54253,-1.68601 54.5182,-6.56614 9.81885,-3.69286 9.76709,-3.7144 16.90064,7.03275 2.66582,4.01624 5.83715,7.66573 7.04739,8.10999 1.21024,0.44425 5.20043,3.48064 8.8671,6.74753 6.37934,5.6838 20.42089,15.86747 24.65621,17.88197 2.81255,1.33777 9.40843,0.0652 12.04925,-2.3247 z"
       id="path2" />
    <path
       style="fill:#ffb380"
       d="M 217.33333,113.11479 C 181.53108,107.08494 157.34356,100.69211 152.19958,95.899764 149.30793,93.205786 149.27186,92.944569 151.45795,90.52897 157.93892,83.367572 205.67279,73.242086 252,69.201614 c 19.53773,-1.704002 64.35051,-0.96622 84.66667,1.393921 47.4923,5.517214 82,15.388841 82,23.457769 0,7.368186 -41.94262,15.839906 -95.31058,19.251186 -25.81151,1.64988 -95.84429,1.52457 -106.02276,-0.1897 z"
       id="path9" />
  </g>
</svg>
