<?xml version="1.0" encoding="utf-8"?>

<!DOCTYPE svg PUBLIC "-//W3C//DTD SVG 1.1//EN" "http://www.w3.org/Graphics/SVG/1.1/DTD/svg11.dtd">
<svg version="1.1" id="Layer_1" xmlns="http://www.w3.org/2000/svg" xmlns:xlink="http://www.w3.org/1999/xlink" x="0px" y="0px"
	 viewBox="0 0 1502.012 1656.924" enable-background="new 0 0 1502.012 1656.924" xml:space="preserve">
<g id="Man_Head_Silhouette_2">
	<g id="Man_Head_Silhouette_2_1_">
		<g>
			<path d="M545.119,1615.544l-6.194,6.194c-0.118,2.239-0.252,4.479-0.422,6.724h13.584l2.975-2.975L545.119,1615.544z"/>
			<polygon points="555.062,1625.487 552.087,1628.462 558.038,1628.462 			"/>
			<path d="M1317.129,1628.462h3.04c-2.535-11.911-5.108-24.417-7.69-37.38l-16.365,16.365L1317.129,1628.462z"/>
			<polygon fill="#FF0000" points="1275.099,1628.462 1317.129,1628.462 1296.114,1607.447 			"/>
			
				<rect x="649.8" y="426.151" transform="matrix(0.7071 -0.7071 0.7071 0.7071 -121.5385 603.8072)" width="36.583" height="44.926"/>
			<polygon points="665.142,419.796 696.909,451.564 784.227,364.246 750.625,330.643 711.231,370.037 713.066,371.872 			"/>
			
				<rect x="760.022" y="305.809" transform="matrix(0.7071 -0.7071 0.7071 0.7071 -3.0316 651.8198)" fill="#FF0000" width="50.558" height="47.521"/>
			
				<rect x="683.415" y="302.883" transform="matrix(0.7071 -0.7071 0.7071 0.7071 -25.5016 599.7998)" fill="#FF0000" width="55.711" height="55.599"/>
			
				<rect x="723.564" y="265.311" transform="matrix(0.7071 -0.7071 0.7071 0.7071 12.0705 615.3626)" fill="#FF0000" width="50.558" height="55.599"/>
			
				<rect x="632.999" y="430.515" transform="matrix(0.7071 -0.7071 0.7071 0.7071 -114.5765 587.0195)" fill="#FF0000" width="36.583" height="2.595"/>
			
				<rect x="654.299" y="393.619" transform="matrix(0.7071 -0.7071 0.7071 0.7071 -77.6866 602.2769)" width="67.775" height="2.594"/>
			<polygon fill="#FF0000" points="601.516,407.906 637.439,443.829 663.307,417.961 623.992,378.647 526.288,476.352 
				529.679,479.743 			"/>
			
				<rect x="633.724" y="346.542" transform="matrix(0.7071 -0.7071 0.7071 0.7071 -69.1612 581.7139)" fill="#FF0000" width="67.775" height="55.599"/>
			
				<rect x="521.831" y="478.828" transform="matrix(0.7071 -0.7071 0.7071 0.7071 -186.5663 512.046)" fill="#FF0000" width="5.947" height="4.796"/>
			
				<rect x="526.684" y="476.187" transform="matrix(0.7071 -0.7071 0.7071 0.7071 -183.926 513.1346)" fill="#FF0000" width="1.522" height="4.796"/>
			<polygon points="846.607,652.997 945.661,553.943 1046.189,654.47 1092.164,608.495 1061.934,578.265 1030.09,610.108 
				865.058,445.076 777.74,532.394 710.473,465.127 684.605,490.995 			"/>
			<polygon fill="#FF0000" points="1030.09,610.108 1061.934,578.265 934.308,450.638 938.214,446.732 900.808,409.326 
				865.058,445.076 			"/>
			
				<rect x="726.022" y="407.537" transform="matrix(0.7071 -0.7071 0.7071 0.7071 -91.0743 690.3303)" fill="#FF0000" width="123.486" height="95.13"/>
			
				<rect x="824.02" y="346.003" transform="matrix(0.7071 -0.7071 0.7071 0.7071 -29.5402 715.8185)" width="50.558" height="95.13"/>
			
				<rect x="672.466" y="461.688" transform="matrix(0.7071 -0.7071 0.7071 0.7071 -130.9265 626.4744)" fill="#FF0000" width="36.583" height="19.182"/>
			
				<rect x="685.607" y="405.096" transform="matrix(0.7071 -0.7071 0.7071 0.7071 -74.3338 649.915)" width="123.486" height="19.182"/>
			
				<rect x="783.605" y="343.561" transform="matrix(0.7071 -0.7071 0.7071 0.7071 -12.8 675.4026)" width="50.558" height="19.182"/>
			
				<rect x="876.356" y="582.65" transform="matrix(0.7071 -0.7071 0.7071 0.7071 -185.0657 860.6791)" fill="#FF0000" width="140.084" height="142.167"/>
			
				<rect x="392.039" y="691.138" transform="matrix(0.7071 -0.7071 0.7071 0.7071 -386.5259 494.0464)" fill="#FF0000" width="22.13" height="44.926"/>
			
				<rect x="372.912" y="689.889" transform="matrix(0.7071 -0.7071 0.7071 0.7071 -378.6024 474.9164)" fill="#FF0000" width="22.13" height="9.172"/>
			
				<rect x="523.019" y="822.507" transform="matrix(0.7071 -0.7071 0.7071 0.7071 -440.7793 625.0248)" fill="#FF0000" width="22.13" height="44.148"/>
			
				<rect x="481.553" y="766.548" transform="matrix(0.7071 -0.7071 0.7071 0.7071 -423.6039 583.5608)" width="22.13" height="73.135"/>
			
				<rect x="431.809" y="719.591" transform="matrix(0.7071 -0.7071 0.7071 0.7071 -402.9996 533.8175)" fill="#FF0000" width="22.13" height="67.562"/>
			
				<rect x="831.921" y="833.87" transform="matrix(0.7071 -0.7071 0.7071 0.7071 -339.908 875.9637)" width="111.022" height="28.838"/>
			
				<rect x="408.203" y="676.735" transform="matrix(0.7071 -0.7071 0.7071 0.7071 -372.1223 500.0118)" fill="#FF0000" width="18.609" height="44.926"/>
			<polygon points="408.203,676.735 406.368,674.9 400.219,681.049 395.569,676.398 388.559,683.408 395.044,689.893 			"/>
			
				<rect x="396.62" y="672.361" transform="matrix(0.7071 -0.7071 0.7071 0.7071 -360.3153 481.4205)" fill="#FF0000" width="8.696" height="6.577"/>
			
				<rect x="539.183" y="808.104" transform="matrix(0.7071 -0.7071 0.7071 0.7071 -426.3772 630.9973)" fill="#FF0000" width="18.609" height="44.148"/>
			
				<rect x="497.717" y="752.145" transform="matrix(0.7071 -0.7071 0.7071 0.7071 -409.2004 589.5263)" width="18.609" height="73.135"/>
			
				<rect x="447.973" y="705.188" transform="matrix(0.7071 -0.7071 0.7071 0.7071 -388.596 539.7831)" width="18.609" height="67.562"/>
			
				<rect x="568.443" y="475.003" transform="matrix(0.7071 -0.7071 0.7071 0.7071 -170.391 583.5703)" width="101.593" height="44.926"/>
			
				<rect x="551.641" y="479.368" transform="matrix(0.7071 -0.7071 0.7071 0.7071 -163.4315 566.7714)" width="101.593" height="2.595"/>
			
				<rect x="532.763" y="436.385" transform="matrix(0.7071 -0.7071 0.7071 0.7071 -155.6118 547.892)" fill="#FF0000" width="101.593" height="50.803"/>
			
				<rect x="410.332" y="583.206" transform="matrix(0.7071 -0.7071 0.7071 0.7071 -278.5938 538.7534)" width="201.408" height="44.926"/>
			
				<rect x="582.021" y="511.46" transform="matrix(0.7071 -0.7071 0.7071 0.7071 -206.8484 568.4493)" width="1.522" height="44.926"/>
			
				<rect x="393.531" y="587.571" transform="matrix(0.7071 -0.7071 0.7071 0.7071 -271.6346 521.9523)" fill="#FF0000" width="201.408" height="2.594"/>
			
				<rect x="565.22" y="515.824" transform="matrix(0.7071 -0.7071 0.7071 0.7071 -199.8864 551.7089)" width="1.522" height="2.595"/>
			<polygon points="564.526,516.742 528.603,480.819 524.398,485.025 555.67,516.297 417.458,654.509 422.109,659.159 			"/>
			
				<rect x="546.342" y="472.842" transform="matrix(0.7071 -0.7071 0.7071 0.7071 -192.0693 532.7709)" fill="#FF0000" width="1.522" height="50.803"/>
			
				<rect x="420.827" y="662.285" transform="matrix(0.7071 -0.7071 0.7071 0.7071 -357.6725 505.9971)" fill="#FF0000" width="22.261" height="44.926"/>
			
				<rect x="404.025" y="666.65" transform="matrix(0.7071 -0.7071 0.7071 0.7071 -350.7135 489.1967)" width="22.261" height="2.594"/>
			
				<rect x="400.783" y="661.416" transform="matrix(0.7071 -0.7071 0.7071 0.7071 -349.3703 485.9541)" fill="#FF0000" width="22.261" height="6.577"/>
			<polygon fill="#FF0000" points="539.458,807.99 570.676,839.208 685.261,724.622 730.122,769.482 846.607,652.997 
				684.605,490.995 612.768,562.832 646.978,597.042 503.485,740.535 555.199,792.249 			"/>
			
				<rect x="591.108" y="510.541" transform="matrix(0.7071 -0.7071 0.7071 0.7071 -179.7792 606.2382)" width="101.593" height="19.182"/>
			<polygon points="646.978,597.042 612.768,562.832 611.692,563.908 598.128,550.345 455.711,692.762 503.485,740.535 			"/>
			
				<rect x="604.687" y="546.998" transform="matrix(0.7071 -0.7071 0.7071 0.7071 -216.2359 591.1354)" fill="#FF0000" width="1.522" height="19.182"/>
			
				<rect x="510.341" y="737.695" transform="matrix(0.7071 -0.7071 0.7071 0.7071 -394.7506 595.511)" width="22.261" height="73.135"/>
			
				<rect x="460.597" y="690.738" transform="matrix(0.7071 -0.7071 0.7071 0.7071 -374.1463 545.7689)" fill="#FF0000" width="22.261" height="67.562"/>
			<polygon points="916.488,798.841 909.153,791.506 947.134,753.524 846.607,652.997 730.122,769.482 837.984,877.345 			"/>
			
				<rect x="597.429" y="1013.318" transform="matrix(0.7071 -0.7071 0.7071 0.7071 -565.3739 755.6207)" fill="#FF0000" width="63.996" height="93.917"/>
			
				<rect x="561.058" y="850.899" transform="matrix(0.7071 -0.7071 0.7071 0.7071 -456.5364 663.0677)" fill="#FF0000" width="22.13" height="63.442"/>
			<polygon points="743.79,1012.322 723.399,991.931 710.24,1005.089 602.377,897.227 586.729,912.875 648.574,974.72 
				618.849,1004.446 685.258,1070.855 			"/>
			
				<rect x="709.863" y="930.415" transform="matrix(0.7071 -0.7071 0.7071 0.7071 -436.4528 835.9768)" fill="#FF0000" width="162.049" height="28.838"/>
			
				<rect x="577.222" y="836.496" transform="matrix(0.7071 -0.7071 0.7071 0.7071 -442.1325 669.0317)" fill="#FF0000" width="18.609" height="63.442"/>
			
				<rect x="653.583" y="868.308" transform="matrix(0.7071 -0.7071 0.7071 0.7071 -473.7625 745.3929)" fill="#FF0000" width="18.609" height="152.541"/>
			
				<rect x="569.374" y="772.624" transform="matrix(0.7071 -0.7071 0.7071 0.7071 -378.2605 695.4884)" fill="#FF0000" width="162.049" height="63.442"/>
			
				<rect x="645.736" y="804.436" transform="matrix(0.7071 -0.7071 0.7071 0.7071 -409.8904 771.8502)" fill="#FF0000" width="162.049" height="152.541"/>
			
				<rect x="923.716" y="928.695" transform="matrix(0.7071 -0.7071 0.7071 0.7071 -377.9304 967.77)" fill="#FF0000" width="111.022" height="22.776"/>
			
				<rect x="950.359" y="940.436" transform="matrix(0.7071 -0.7071 0.7071 0.7071 -388.9665 994.4053)" fill="#FF0000" width="111.022" height="52.581"/>
			
				<rect x="905.143" y="906.631" transform="matrix(0.7071 -0.7071 0.7071 0.7071 -370.2372 949.1848)" width="111.022" height="29.758"/>
			
				<rect x="868.37" y="847.611" transform="matrix(0.7071 -0.7071 0.7071 0.7071 -355.0052 912.4155)" width="111.022" height="74.253"/>
			<polygon fill="#FF0000" points="916.568,1093.209 935.181,1074.596 898,1037.416 948.028,987.388 931.922,971.283 
				863.282,1039.923 			"/>
			
				<rect x="906.23" y="1004.702" transform="matrix(0.7071 -0.7071 0.7071 0.7071 -453.2322 967.7847)" width="70.749" height="52.581"/>
			
				<rect x="636.674" y="1090.979" transform="matrix(0.7071 -0.7071 0.7071 0.7071 -581.6296 794.8652)" width="63.996" height="17.086"/>
			
				<rect x="838.545" y="980.203" transform="matrix(0.7071 -0.7071 0.7071 0.7071 -443.8094 918.716)" fill="#FF0000" width="97.072" height="29.758"/>
			
				<rect x="679.176" y="1039.086" transform="matrix(0.7071 -0.7071 0.7071 0.7071 -529.7372 816.3591)" fill="#FF0000" width="82.778" height="17.086"/>
			<polygon points="743.79,1012.322 755.872,1024.404 801.817,978.458 842.24,1018.882 910.881,950.241 858.376,897.737 			"/>
			
				<rect x="1219.305" y="813.95" transform="matrix(0.7071 -0.7071 0.7071 0.7071 -220.7399 1111.9016)" fill="#FF0000" width="25.009" height="16.914"/>
			<path fill="#FF0000" d="M1228.947,837.228l137.699,137.699c4.878-7.076,9.645-14.113,14.239-21.129l-134.253-134.253
				L1228.947,837.228z"/>
			
				<rect x="1234.792" y="790.962" transform="matrix(0.7071 -0.7071 0.7071 0.7071 -197.7537 1121.416)" width="40.01" height="16.914"/>
			<path d="M1274.922,791.253l-28.292,28.291l134.253,134.253c14.358-21.927,26.997-43.646,35.816-65.703
				c5.57-13.919,10.731-27.778,15.505-41.571l-51.006,51.006L1274.922,791.253z"/>
			
				<rect x="1198.477" y="832.936" transform="matrix(0.7071 -0.7071 0.7071 0.7071 -239.7274 1104.0299)" fill="#FF0000" width="28.692" height="16.914"/>
			<path d="M1208.659,857.517l141.318,141.318c5.627-8.035,11.215-15.996,16.669-23.907l-137.699-137.699L1208.659,857.517z"/>
			
				<rect x="1141.331" y="718.166" transform="matrix(0.7071 -0.7071 0.7071 0.7071 -188.4425 1033.9269)" width="25.009" height="52.534"/>
			
				<rect x="1175.12" y="756.704" transform="matrix(0.7071 -0.7071 0.7071 0.7071 -202.4394 1067.7106)" width="25.009" height="43.035"/>
			
				<rect x="1201.83" y="788.676" transform="matrix(0.7071 -0.7071 0.7071 0.7071 -213.5024 1094.4233)" fill="#FF0000" width="25.009" height="32.512"/>
			
				<rect x="1156.818" y="695.178" transform="matrix(0.7071 -0.7071 0.7071 0.7071 -165.455 1043.4475)" width="40.01" height="52.534"/>
			
				<rect x="1190.607" y="733.717" transform="matrix(0.7071 -0.7071 0.7071 0.7071 -179.4508 1077.2367)" fill="#FF0000" width="40.01" height="43.035"/>
			
				<rect x="1217.317" y="765.688" transform="matrix(0.7071 -0.7071 0.7071 0.7071 -190.5143 1103.947)" fill="#FF0000" width="40.01" height="32.512"/>
			
				<rect x="1120.504" y="737.152" transform="matrix(0.7071 -0.7071 0.7071 0.7071 -207.4287 1026.0623)" fill="#FF0000" width="28.692" height="52.534"/>
			
				<rect x="1154.292" y="775.69" transform="matrix(0.7071 -0.7071 0.7071 0.7071 -221.4249 1059.8491)" width="28.692" height="43.035"/>
			
				<rect x="1181.002" y="807.662" transform="matrix(0.7071 -0.7071 0.7071 0.7071 -232.4882 1086.5609)" width="28.692" height="32.512"/>
			<polygon fill="#FF0000" points="1169.932,686.262 1099.499,615.83 1053.524,661.805 1126.42,734.701 1144.104,717.018 
				1141.641,714.554 			"/>
			
				<rect x="1137.013" y="699.898" transform="matrix(0.7071 -0.7071 0.7071 0.7071 -157.2556 1023.6247)" width="40.01" height="3.484"/>
			<polygon fill="#FF0000" points="954.47,760.86 974.861,781.251 1053.627,702.485 1106.132,754.99 1126.42,734.701 
				1053.524,661.805 			"/>
			
				<rect x="1040.335" y="629.963" transform="matrix(0.7071 -0.7071 0.7071 0.7071 -134.8898 944.6473)" width="65.019" height="10.374"/>
			
				<rect x="930.287" y="702.478" transform="matrix(0.7071 -0.7071 0.7071 0.7071 -207.4049 914.6098)" width="140.084" height="10.374"/>
			
				<rect x="918.818" y="775.627" transform="matrix(0.7071 -0.7071 0.7071 0.7071 -281.6653 900.0912)" width="53.714" height="28.838"/>
			
				<rect x="904.955" y="770.996" transform="matrix(0.7071 -0.7071 0.7071 0.7071 -275.9227 886.2288)" width="53.714" height="10.374"/>
			<path fill="#FF0000" d="M1279.958,1115.101c0.435-1.003,0.882-2,1.326-2.999l-2.162,2.162L1279.958,1115.101z"/>
			
				<rect x="1101.174" y="922.033" transform="matrix(0.7071 -0.7071 0.7071 0.7071 -327.0673 1065.3682)" fill="#FF0000" width="42.618" height="10.914"/>
			<polygon points="1133.692,908.564 1141.41,916.282 1184.401,873.291 1188.643,877.533 1208.659,857.517 1196.699,845.557 			"/>
			<path fill="#FF0000" d="M1188.643,877.533l144.929,144.929c5.447-7.96,10.943-15.829,16.405-23.627l-141.318-141.318
				L1188.643,877.533z"/>
			
				<rect x="1107.154" y="930.471" transform="matrix(0.7071 -0.7071 0.7071 0.7071 -329.5439 1071.351)" width="42.618" height="5.999"/>
			<path fill="#FF0000" d="M1115.516,950.659l163.606,163.606l2.162-2.162c5.647-12.68,12.026-25.01,18.894-37.052l-154.527-154.527
				L1115.516,950.659z"/>
			
				<rect x="1134.627" y="893.907" transform="matrix(0.7071 -0.7071 0.7071 0.7071 -292.9836 1086.475)" fill="#FF0000" width="60.798" height="5.999"/>
			<path d="M1145.652,920.524l154.527,154.527c10.325-18.103,21.74-35.558,33.393-52.589l-144.929-144.929L1145.652,920.524z"/>
			<polygon points="1027.366,833.756 1048.408,854.798 1010.426,892.779 1026.532,908.884 1143.279,792.137 1106.132,754.99 			"/>
			<polygon points="1173.71,822.568 1143.279,792.137 1026.532,908.884 1063.713,946.065 1087.318,922.46 1103.557,938.699 
				1133.692,908.564 1110.703,885.575 			"/>
			
				<rect x="1109.148" y="849.31" transform="matrix(0.7071 -0.7071 0.7071 0.7071 -274.136 1069.3099)" width="89.105" height="32.512"/>
			
				<rect x="984.801" y="730.994" transform="matrix(0.7071 -0.7071 0.7071 0.7071 -238.3889 960.7195)" fill="#FF0000" width="111.392" height="74.253"/>
			
				<rect x="992.039" y="848.389" transform="matrix(0.7071 -0.7071 0.7071 0.7071 -311.9945 973.3125)" width="53.714" height="29.758"/>
			
				<rect x="955.266" y="789.368" transform="matrix(0.7071 -0.7071 0.7071 0.7071 -296.7624 936.5419)" fill="#FF0000" width="53.714" height="74.253"/>
			
				<rect x="1131.316" y="479.234" transform="matrix(0.7071 -0.7071 0.7071 0.7071 -6.1082 968.5596)" width="69.587" height="24.839"/>
			
				<rect x="1146.431" y="497.812" transform="matrix(0.7071 -0.7071 0.7071 0.7071 -12.366 983.6823)" width="69.587" height="17.913"/>
			
				<rect x="1189.62" y="451.995" transform="matrix(0.7071 -0.7071 0.7071 0.7071 21.1333 979.8485)" width="7.457" height="24.839"/>
			
				<rect x="1204.735" y="470.573" transform="matrix(0.7071 -0.7071 0.7071 0.7071 14.8725 994.9635)" fill="#FF0000" width="7.457" height="17.913"/>
			<path d="M1204.767,470.56l180.228-180.228c-4.716-6.928-9.608-13.747-14.676-20.452l-183.116,183.116L1204.767,470.56z"/>
			<path d="M1217.433,483.226l138.612-138.612l77.768,77.768l11.621-11.621c-14.913-42.932-35.133-83.256-60.439-120.429
				L1204.767,470.56L1217.433,483.226z"/>
			<path fill="#FF0000" d="M1455.895,444.465c-3.134-11.401-6.619-22.64-10.462-33.703l-11.621,11.621L1455.895,444.465z"/>
			<polygon fill="#FF0000" points="1132.725,507.474 1181.93,458.269 1098.547,374.885 1103.819,369.612 1099.191,364.984 
				1044.713,419.462 			"/>
			
				<rect x="1139.146" y="354.979" transform="matrix(0.7071 -0.7071 0.7071 0.7071 42.0402 929.3749)" fill="#FF0000" width="7.457" height="117.922"/>
			<path d="M1103.819,369.612l185.152-185.152c-1.675-1.407-3.367-2.802-5.064-4.193l-184.717,184.717L1103.819,369.612z"/>
			<path fill="#FF0000" d="M1187.203,452.996l183.116-183.116c-23.426-31-50.595-59.585-81.347-85.42l-185.152,185.152
				L1187.203,452.996z"/>
			<polygon fill="#FF0000" points="1149.796,550.863 1153.781,546.877 1141.115,534.211 1146.172,529.154 1128.608,511.59 
				1119.566,520.632 			"/>
			
				<rect x="1146.401" y="529.059" transform="matrix(0.7071 -0.7071 0.7071 0.7071 -43.6142 970.7375)" fill="#FF0000" width="7.151" height="17.913"/>
			
				<rect x="1136.538" y="505.895" transform="matrix(0.7071 -0.7071 0.7071 0.7071 -32.7699 957.5137)" fill="#FF0000" width="5.822" height="24.839"/>
			
				<rect x="1151.653" y="524.473" transform="matrix(0.7071 -0.7071 0.7071 0.7071 -39.0265 972.6403)" fill="#FF0000" width="5.822" height="17.913"/>
			
				<rect x="1073.688" y="409.871" transform="matrix(0.7071 -0.7071 0.7071 0.7071 -17.4803 902.0096)" width="12.787" height="124.468"/>
			
				<rect x="1083.75" y="403.292" transform="matrix(0.7071 -0.7071 0.7071 0.7071 -10.8979 904.7426)" fill="#FF0000" width="5.822" height="124.468"/>
			
				<rect x="1079.91" y="537.059" transform="matrix(0.7071 -0.7071 0.7071 0.7071 -69.1772 949.8604)" width="64.168" height="42.752"/>
			
				<rect x="1020.789" y="437.079" transform="matrix(0.7071 -0.7071 0.7071 0.7071 -44.6882 890.7401)" width="64.168" height="124.468"/>
			
				<rect x="1074.51" y="565.875" transform="matrix(0.7071 -0.7071 0.7071 0.7071 -97.9924 937.9273)" width="17.336" height="42.752"/>
			<polygon points="1061.934,578.265 1074.192,566.006 986.18,477.994 977.828,486.346 938.214,446.732 934.308,450.638 			"/>
			
				<rect x="1193.005" y="644.095" transform="matrix(0.7071 -0.7071 0.7071 0.7071 -114.3719 1064.6058)" width="69.804" height="52.534"/>
			
				<rect x="1226.794" y="682.633" transform="matrix(0.7071 -0.7071 0.7071 0.7071 -128.3676 1098.3947)" width="69.804" height="43.035"/>
			<polygon points="1252.231,744.046 1275.221,767.035 1262.963,779.293 1274.922,791.253 1336.54,729.636 1301.591,694.687 			"/>
			<path fill="#FF0000" d="M1274.922,791.253l106.277,106.277l51.006-51.006c1.837-5.308,3.61-10.605,5.33-15.893L1336.54,729.636
				L1274.922,791.253z"/>
			<polygon fill="#FF0000" points="1239.07,622.052 1234.013,627.109 1271.16,664.256 1329.539,605.877 1313.049,589.387 
				1259.727,642.709 			"/>
			
				<rect x="1274.285" y="628.764" transform="matrix(0.7071 -0.7071 0.7071 0.7071 -74.4985 1120.7086)" width="82.56" height="43.035"/>
			
				<rect x="1306.975" y="658.259" transform="matrix(0.7071 -0.7071 0.7071 0.7071 -88.0402 1153.3953)" width="82.56" height="49.425"/>
			<path d="M1336.54,729.636l100.995,100.995c10.145-31.193,18.26-62.021,24.38-92.377l-66.997-66.997L1336.54,729.636z"/>
			
				<rect x="1320.202" y="583.336" transform="matrix(0.7071 -0.7071 0.7071 0.7071 -32.9554 1110.4302)" fill="#FF0000" width="7.457" height="23.321"/>
			
				<rect x="1343.662" y="596.938" transform="matrix(0.7071 -0.7071 0.7071 0.7071 -42.673 1133.8906)" fill="#FF0000" width="7.457" height="43.035"/>
			
				<rect x="1376.352" y="626.433" transform="matrix(0.7071 -0.7071 0.7071 0.7071 -56.2136 1166.5804)" width="7.457" height="49.425"/>
			<path fill="#FF0000" d="M1466.68,712.313c1.437-8.671,2.703-17.298,3.813-25.883l-14.848,14.848L1466.68,712.313z"/>
			<path d="M1445.565,711.358l-45.374-45.374l-5.273,5.273l66.997,66.997c1.751-8.687,3.338-17.334,4.765-25.941l-11.035-11.035
				L1445.565,711.358z"/>
			<path d="M1334.812,600.604l10.08-10.08l30.431,30.431l96.358-96.358c-3.317-26.91-8.448-53.108-15.342-78.5l-138.017,138.017
				L1334.812,600.604z"/>
			
				<rect x="1347.939" y="589.262" transform="matrix(0.7071 -0.7071 0.7071 0.7071 -34.9954 1137.0731)" width="14.255" height="43.035"/>
			<path fill="#FF0000" d="M1410.271,655.904l56.465-56.464l9.406,9.406c0.419-28.746-1.085-56.864-4.461-84.249l-96.358,96.358
				L1410.271,655.904z"/>
			
				<rect x="1380.629" y="618.757" transform="matrix(0.7071 -0.7071 0.7071 0.7071 -48.5354 1169.7644)" fill="#FF0000" width="14.255" height="49.425"/>
			<path d="M1410.271,655.904l45.374,45.374l14.848-14.848c3.401-26.302,5.278-52.188,5.648-77.584l-9.406-9.406L1410.271,655.904z"
				/>
			
				<rect x="1420.791" y="651.547" transform="matrix(0.7071 -0.7071 0.7071 0.7071 -65.174 1209.9171)" fill="#FF0000" width="14.255" height="64.168"/>
			
				<rect x="1191.648" y="496.995" transform="matrix(0.7071 -0.7071 0.7071 0.7071 -31.0961 1028.8978)" fill="#FF0000" width="69.587" height="109.98"/>
			<polygon points="1243.186,617.935 1239.07,622.052 1259.727,642.709 1313.049,589.387 1289.928,566.267 1240.723,615.472 			"/>
			
				<rect x="1249.952" y="469.756" transform="matrix(0.7071 -0.7071 0.7071 0.7071 -3.857 1040.1805)" width="7.457" height="109.98"/>
			
				<rect x="1300.396" y="558.842" transform="matrix(0.7071 -0.7071 0.7071 0.7071 -24.7517 1090.6248)" fill="#FF0000" width="7.457" height="32.698"/>
			
				<rect x="1227.609" y="397.814" transform="matrix(0.7071 -0.7071 0.7071 0.7071 68.0855 1069.9805)" width="196.026" height="109.98"/>
			<path d="M1295.201,560.994l23.121,23.121l138.017-138.017c-0.148-0.544-0.294-1.089-0.444-1.632l-22.083-22.083L1295.201,560.994
				z"/>
			
				<rect x="1188.431" y="674.904" transform="matrix(0.7071 -0.7071 0.7071 0.7071 -145.1802 1051.8456)" width="17.336" height="52.534"/>
			
				<rect x="1222.219" y="713.442" transform="matrix(0.7071 -0.7071 0.7071 0.7071 -159.177 1085.6305)" fill="#FF0000" width="17.336" height="43.035"/>
			
				<rect x="1248.929" y="745.413" transform="matrix(0.7071 -0.7071 0.7071 0.7071 -170.239 1112.3468)" fill="#FF0000" width="17.336" height="32.512"/>
			<polygon fill="#FF0000" points="1111.757,603.572 1182.19,674.004 1231.549,624.645 1153.781,546.877 1149.796,550.863 
				1157.131,558.198 			"/>
			
				<rect x="1173.199" y="648.814" transform="matrix(0.7071 -0.7071 0.7071 0.7071 -106.1731 1044.7841)" fill="#FF0000" width="69.804" height="3.484"/>
			
				<rect x="1191.618" y="528.243" transform="matrix(0.7071 -0.7071 0.7071 0.7071 -62.3437 1015.9546)" fill="#FF0000" width="7.151" height="109.98"/>
			
				<rect x="1231.734" y="621.607" transform="matrix(0.7071 -0.7071 0.7071 0.7071 -78.9549 1056.0865)" fill="#FF0000" width="7.151" height="3.484"/>
			
				<rect x="1196.87" y="523.656" transform="matrix(0.7071 -0.7071 0.7071 0.7071 -57.7538 1017.8638)" fill="#FF0000" width="5.822" height="109.98"/>
			
				<rect x="1236.985" y="617.02" transform="matrix(0.7071 -0.7071 0.7071 0.7071 -74.3768 1057.9604)" fill="#FF0000" width="5.822" height="3.484"/>
			
				<rect x="1132.177" y="595.114" transform="matrix(0.7071 -0.7071 0.7071 0.7071 -121.8795 995.5909)" width="17.336" height="99.607"/>
			
				<rect x="1168.625" y="679.623" transform="matrix(0.7071 -0.7071 0.7071 0.7071 -136.9751 1032.0455)" fill="#FF0000" width="17.336" height="3.484"/>
			
				<rect x="1098.693" y="572.03" transform="matrix(0.7071 -0.7071 0.7071 0.7071 -76.9575 968.6422)" fill="#FF0000" width="64.169" height="10.374"/>
			
				<rect x="1093.293" y="600.846" transform="matrix(0.7071 -0.7071 0.7071 0.7071 -105.7733 956.707)" width="17.336" height="10.374"/>
			
				<rect x="975.113" y="307.455" transform="matrix(0.7071 -0.7071 0.7071 0.7071 60.7803 814.5472)" fill="#FF0000" width="77.044" height="52.9"/>
			<path d="M1059.577,325.369l178.775-178.775c-14.921-9.921-30.503-19.29-46.731-28.081l-169.451,169.451L1059.577,325.369z"/>
			<path fill="#FF0000" d="M900.425,275.174l67.267,67.267l54.478-54.478l-23.497-23.497l161.75-161.75
				c-51.635-24.423-109.143-43.372-172.197-56.055l70.356,70.356L900.425,275.174z"/>
			<path fill="#FF0000" d="M1022.171,287.963l169.451-169.451c-10.145-5.496-20.549-10.76-31.197-15.797l-161.75,161.75
				L1022.171,287.963z"/>
			<path d="M813.945,188.694l3.007,3.007L966.134,42.519c-12.192-2.128-24.587-4.021-37.172-5.687l18.423,18.423L813.945,188.694z"
				/>
			<path fill="#FF0000" d="M900.425,275.174l158.158-158.158l-70.356-70.356c-7.289-1.466-14.657-2.844-22.093-4.142
				L816.952,191.701L900.425,275.174z"/>
			
				<rect x="971.364" y="343.332" transform="matrix(0.7071 -0.7071 0.7071 0.7071 24.9061 799.6923)" fill="#FF0000" width="12.787" height="52.9"/>
			<rect x="981.426" y="336.753" transform="matrix(0.7071 -0.7071 0.7071 0.7071 31.4858 802.4182)" width="5.822" height="52.9"/>
			
				<rect x="919.028" y="269.881" transform="matrix(0.7071 -0.7071 0.7071 0.7071 46.5817 747.3493)" fill="#FF0000" width="12.787" height="95.13"/>
			
				<rect x="929.09" y="263.301" transform="matrix(0.7071 -0.7071 0.7071 0.7071 53.1578 750.0681)" fill="#FF0000" width="5.822" height="95.13"/>
			<polygon points="847.111,234.158 840.101,241.167 887.267,288.333 896.309,279.291 812.835,195.818 816.952,191.701 
				813.945,188.694 807.796,194.843 			"/>
			
				<rect x="853.719" y="176.471" transform="matrix(0.7071 -0.7071 0.7071 0.7071 84.3837 674.71)" width="5.822" height="118.049"/>
			
				<rect x="818.992" y="190.206" transform="matrix(0.7071 -0.7071 0.7071 0.7071 87.1764 646.4725)" width="9.913" height="55.599"/>
			
				<rect x="918.466" y="370.54" transform="matrix(0.7071 -0.7071 0.7071 0.7071 -2.3044 788.4167)" fill="#FF0000" width="64.169" height="52.9"/>
			
				<rect x="866.129" y="297.089" transform="matrix(0.7071 -0.7071 0.7071 0.7071 19.3735 736.0788)" fill="#FF0000" width="64.169" height="95.13"/>
			<polygon points="819.977,328.496 828.329,320.144 841.893,333.707 887.267,288.333 840.101,241.167 786.375,294.893 			"/>
			
				<rect x="755.591" y="220.573" transform="matrix(0.7071 -0.7071 0.7071 0.7071 56.8087 633.894)" fill="#FF0000" width="75.98" height="55.599"/>
			
				<rect x="917.781" y="397.403" transform="matrix(0.7071 -0.7071 0.7071 0.7071 -29.169 777.2854)" fill="#FF0000" width="11.811" height="52.9"/>
			
				<rect x="865.445" y="323.951" transform="matrix(0.7071 -0.7071 0.7071 0.7071 -7.4879 724.9556)" width="11.811" height="95.13"/>
			
				<rect x="825.029" y="321.51" transform="matrix(0.7071 -0.7071 0.7071 0.7071 9.2505 684.5353)" fill="#FF0000" width="11.811" height="19.182"/>
			
				<rect x="1013.623" y="344.404" transform="matrix(0.7071 -0.7071 0.7071 0.7071 44.8285 853.0566)" fill="#FF0000" width="77.044" height="56.023"/>
			<path d="M1099.191,364.984l184.717-184.717c-14.426-11.828-29.609-23.069-45.556-33.673l-178.775,178.775L1099.191,364.984z"/>
			
				<rect x="1009.874" y="380.281" transform="matrix(0.7071 -0.7071 0.7071 0.7071 8.9518 838.196)" fill="#FF0000" width="12.787" height="56.023"/>
			
				<rect x="1019.936" y="373.701" transform="matrix(0.7071 -0.7071 0.7071 0.7071 15.5318 840.9227)" fill="#FF0000" width="5.822" height="56.023"/>
			
				<rect x="956.976" y="407.489" transform="matrix(0.7071 -0.7071 0.7071 0.7071 -18.2559 826.9268)" width="64.168" height="56.023"/>
			
				<rect x="956.291" y="434.352" transform="matrix(0.7071 -0.7071 0.7071 0.7071 -45.1191 815.7991)" fill="#FF0000" width="11.811" height="56.023"/>
			<path d="M620.764,200.782l-37.565-37.565l35.75-35.75l-59.08-59.08c-36.97,13.238-71.05,29.433-102.211,48.077L581.37,240.176
				L620.764,200.782z"/>
			
				<rect x="594.577" y="137.562" transform="matrix(0.7071 -0.7071 0.7071 0.7071 65.4979 486.3752)" width="50.558" height="53.125"/>
			<path d="M533.446,288.1L400.895,155.549c-37.533,29.606-69.554,63.185-95.981,99.429l130.827,130.827L533.446,288.1z"/>
			<path fill="#FF0000" d="M581.37,240.176L457.657,116.464c-20.143,12.052-39.066,25.127-56.763,39.086L533.446,288.1
				L581.37,240.176z"/>
			<path d="M434.665,386.881L304.012,256.228c-1.18,1.629-2.349,3.263-3.507,4.903L430.46,391.086L434.665,386.881z"/>
			<path fill="#FF0000" d="M435.741,385.805L304.914,254.978c-0.303,0.416-0.6,0.834-0.902,1.25l130.653,130.653L435.741,385.805z"
				/>
			
				<rect x="609.659" y="205.382" transform="matrix(0.7071 -0.7071 0.7071 0.7071 5.0488 526.0436)" fill="#FF0000" width="55.712" height="103.091"/>
			
				<rect x="649.808" y="167.81" transform="matrix(0.7071 -0.7071 0.7071 0.7071 42.6208 541.6064)" width="50.558" height="103.091"/>
			
				<rect x="451.954" y="321.856" transform="matrix(0.7071 -0.7071 0.7071 0.7071 -111.4248 477.7987)" width="138.176" height="103.091"/>
			
				<rect x="559.969" y="249.041" transform="matrix(0.7071 -0.7071 0.7071 0.7071 -38.6102 507.9594)" width="67.775" height="103.091"/>
			
				<rect x="466.037" y="373.887" transform="matrix(0.7071 -0.7071 0.7071 0.7071 -163.4558 456.2469)" width="5.947" height="103.091"/>
			
				<rect x="470.89" y="371.246" transform="matrix(0.7071 -0.7071 0.7071 0.7071 -160.8153 457.3404)" fill="#FF0000" width="1.522" height="103.091"/>
			
				<rect x="654.933" y="289.72" transform="matrix(0.7071 -0.7071 0.7071 0.7071 -13.7049 571.3145)" fill="#FF0000" width="55.711" height="24.961"/>
			
				<rect x="695.081" y="252.148" transform="matrix(0.7071 -0.7071 0.7071 0.7071 23.868 586.8796)" fill="#FF0000" width="50.558" height="24.961"/>
			
				<rect x="497.227" y="406.194" transform="matrix(0.7071 -0.7071 0.7071 0.7071 -130.1779 523.0695)" width="138.176" height="24.961"/>
			
				<rect x="605.242" y="333.379" transform="matrix(0.7071 -0.7071 0.7071 0.7071 -57.3623 553.235)" fill="#FF0000" width="67.775" height="24.961"/>
			
				<rect x="511.31" y="458.225" transform="matrix(0.7071 -0.7071 0.7071 0.7071 -182.2088 501.5175)" width="5.947" height="24.961"/>
			
				<rect x="516.163" y="455.584" transform="matrix(0.7071 -0.7071 0.7071 0.7071 -179.5681 502.6137)" width="1.522" height="24.961"/>
			<path d="M712.911,33.505c-19.783,2.235-38.994,5.191-57.629,8.823l24.403,24.403L712.911,33.505z"/>
			<path fill="#FF0000" d="M790.146,177.193l6.149-6.149l17.65,17.65l133.44-133.44l-18.423-18.423
				c-8.66-1.146-17.401-2.196-26.245-3.12c-68.205-7.124-131.491-6.796-189.807-0.207l-33.226,33.226L790.146,177.193z"/>
			<path fill="#FF0000" d="M679.684,66.731l-24.403-24.403c-33.689,6.567-65.496,15.346-95.413,26.058l59.08,59.08L679.684,66.731z"
				/>
			<polygon points="710.24,111.306 783.136,184.202 790.146,177.193 679.684,66.731 618.949,127.467 656.514,165.032 			"/>
			
				<rect x="797.698" y="170.463" transform="matrix(0.7071 -0.7071 0.7071 0.7071 105.5546 620.7172)" fill="#FF0000" width="8.696" height="24.961"/>
			
				<rect x="790.51" y="177.042" transform="matrix(0.7071 -0.7071 0.7071 0.7071 98.9738 617.9895)" width="9.913" height="24.961"/>
			
				<rect x="681.835" y="123.072" transform="matrix(0.7071 -0.7071 0.7071 0.7071 87.3588 560.1375)" fill="#FF0000" width="75.98" height="103.091"/>
			
				<rect x="727.108" y="207.41" transform="matrix(0.7071 -0.7071 0.7071 0.7071 68.606 605.4108)" fill="#FF0000" width="75.98" height="24.961"/>
			<path d="M409.947,411.599L284.16,285.812c-33.078,53.38-54.865,111.376-65.172,170.226l73.26,73.26L409.947,411.599z"/>
			<path d="M357.287,652.136l-93.938-93.938l7.01-7.01L214.83,495.66c0.23,19.315,4.447,38.77,13.436,58.752l113.373,113.373
				L357.287,652.136z"/>
			<path d="M292.248,529.298l-73.26-73.26c-1.096,6.261-2.07,12.53-2.906,18.806c-0.915,6.933-1.334,13.866-1.252,20.816
				l55.528,55.528L292.248,529.298z"/>
			
				<rect x="304.32" y="455.351" transform="matrix(0.7071 -0.7071 0.7071 0.7071 -244.9207 422.5028)" fill="#FF0000" width="166.451" height="103.091"/>
			
				<rect x="308.866" y="535.238" transform="matrix(0.7071 -0.7071 0.7071 0.7071 -333.5228 398.1287)" width="9.913" height="132.849"/>
			<polygon fill="#FF0000" points="370.445,638.977 349.403,617.935 365.144,602.194 292.248,529.298 270.358,551.188 
				364.296,645.126 			"/>
			<polygon points="524.398,485.025 521.006,481.633 500.494,502.146 482.843,484.495 365.144,602.194 386.186,623.236 			"/>
			
				<rect x="356.664" y="605.707" transform="matrix(0.7071 -0.7071 0.7071 0.7071 -331.0959 441.8356)" width="22.261" height="29.758"/>
			
				<rect x="354.034" y="653.483" transform="matrix(0.7071 -0.7071 0.7071 0.7071 -370.7837 456.0412)" width="22.13" height="44.226"/>
			
				<rect x="371.471" y="642.154" transform="matrix(0.7071 -0.7071 0.7071 0.7071 -359.4547 460.7339)" width="9.913" height="44.226"/>
			
				<rect x="378.659" y="635.575" transform="matrix(0.7071 -0.7071 0.7071 0.7071 -352.8754 463.4591)" fill="#FF0000" width="8.696" height="44.226"/>
			
				<rect x="373.198" y="547.654" transform="matrix(0.7071 -0.7071 0.7071 0.7071 -264.9541 499.8773)" width="195.461" height="44.226"/>
			
				<rect x="382.821" y="624.63" transform="matrix(0.7071 -0.7071 0.7071 0.7071 -341.9305 467.9926)" fill="#FF0000" width="22.261" height="44.226"/>
			<path d="M430.46,391.086L300.505,261.131c-5.722,8.105-11.174,16.335-16.345,24.68l125.788,125.788L430.46,391.086z"/>
			
				<rect x="442.147" y="386.246" transform="matrix(0.7071 -0.7071 0.7071 0.7071 -175.8148 451.1274)" width="29.01" height="103.091"/>
			
				<rect x="487.42" y="470.584" transform="matrix(0.7071 -0.7071 0.7071 0.7071 -194.5676 496.4007)" width="29.01" height="24.961"/>
			<path d="M137.202,981.049c-4.675,21.306-29.324,33.547-26.6,54.918c2.989,19.916,19.903,27.883,35.328,40.33
				c0.65,0.512,1.17,1.045,1.595,1.594l43.259-43.26L137.202,981.049z"/>
			<path d="M262.622,962.795l-76.725-76.725l-40.79,40.789c8.622,12.538-4.226,32.808-7.142,47.869
				c-0.043,2.201-0.319,4.299-0.763,6.321l53.583,53.583L262.622,962.795z"/>
			<path d="M271.923,972.096l-71.837,71.837l-9.301-9.301l-43.259,43.26c10.328,13.319-42.646,37.152-24.487,59.15
				c1.036,1.196,2.101,2.404,3.181,3.62l157.135-157.135L271.923,972.096z"/>
			
				<rect x="180.558" y="996.787" transform="matrix(0.7071 -0.7071 0.7071 0.7071 -641.7217 457.4677)" width="101.593" height="13.154"/>
			
				<rect x="466.93" y="872.32" transform="matrix(0.7071 -0.7071 0.7071 0.7071 -490.5918 604.3928)" width="34.684" height="44.148"/>
			
				<rect x="425.464" y="816.361" transform="matrix(0.7071 -0.7071 0.7071 0.7071 -473.4164 562.9278)" width="34.684" height="73.135"/>
			<polygon fill="#FF0000" points="381.438,767.035 411.164,737.309 379.396,705.542 325.145,759.792 404.686,839.333 
				429.211,814.808 			"/>
			
				<rect x="310.667" y="724.839" transform="matrix(0.7071 -0.7071 0.7071 0.7071 -413.553 460.4434)" width="76.722" height="9.172"/>
			
				<rect x="446.989" y="894.946" transform="matrix(0.7071 -0.7071 0.7071 0.7071 -513.2182 595.0217)" width="29.312" height="44.148"/>
			<polygon points="395.389,871.491 435.673,911.775 456.4,891.048 404.686,839.333 348.176,895.844 359.606,907.274 			"/>
			
				<rect x="296.702" y="771.574" transform="matrix(0.7071 -0.7071 0.7071 0.7071 -486.7501 480.5172)" fill="#FF0000" width="79.917" height="112.488"/>
			
				<rect x="253.689" y="780.219" transform="matrix(0.7071 -0.7071 0.7071 0.7071 -468.9333 437.5037)" width="79.917" height="9.172"/>
			
				<rect x="279.908" y="924.121" transform="matrix(0.7071 -0.7071 0.7071 0.7071 -564.4908 501.6057)" width="86.677" height="16.165"/>
			<polygon fill="#FF0000" points="286.886,957.133 348.176,895.844 268.635,816.302 266.174,818.763 259.689,812.278 
				185.897,886.07 262.622,962.795 277.585,947.832 			"/>
			
				<rect x="262.422" y="809.704" transform="matrix(0.7071 -0.7071 0.7071 0.7071 -498.4189 425.2908)" width="3.48" height="9.172"/>
			
				<rect x="274.539" y="962.247" transform="matrix(0.7071 -0.7071 0.7071 0.7071 -602.6171 485.8132)" fill="#FF0000" width="21.161" height="16.165"/>
			
				<rect x="264.174" y="953.387" transform="matrix(0.7071 -0.7071 0.7071 0.7071 -598.3235 475.4474)" width="21.161" height="13.154"/>
			
				<rect x="490.378" y="845.194" transform="matrix(0.7071 -0.7071 0.7071 0.7071 -463.4667 615.6295)" width="42.039" height="44.148"/>
			
				<rect x="448.912" y="789.235" transform="matrix(0.7071 -0.7071 0.7071 0.7071 -446.291 574.1635)" width="42.038" height="73.135"/>
			
				<rect x="399.168" y="742.278" transform="matrix(0.7071 -0.7071 0.7071 0.7071 -425.6864 524.4197)" width="42.038" height="67.562"/>
			<polygon fill="#FF0000" points="512.143,897.74 487.618,922.265 527.36,962.007 506.633,982.734 511.751,987.853 
				557.003,942.601 			"/>
			
				<rect x="482.469" y="924.398" transform="matrix(0.7071 -0.7071 0.7071 0.7071 -527.9144 630.5014)" width="29.312" height="56.204"/>
			
				<rect x="533.302" y="952.418" transform="matrix(0.7071 -0.7071 0.7071 0.7071 -538.8112 691.4922)" fill="#FF0000" width="63.996" height="87.462"/>
			
				<rect x="528.417" y="873.586" transform="matrix(0.7071 -0.7071 0.7071 0.7071 -479.2229 653.6684)" fill="#FF0000" width="42.039" height="63.442"/>
			
				<rect x="581.77" y="914.929" transform="matrix(0.7071 -0.7071 0.7071 0.7071 -501.3219 707.0189)" fill="#FF0000" width="42.039" height="87.462"/>
			<path fill="#FF0000" d="M341.638,667.784L228.266,554.411c0.089,0.198,0.168,0.395,0.258,0.593
				c-12.358,19.296-28.166,40.559-45.485,62.682l104.349,104.349L341.638,667.784z"/>
			<path d="M130.477,683.067C80.55,744.682,33.144,804.857,26.514,841.791c-0.72,3.961-0.874,7.652-0.562,11.108L163.131,715.72
				L130.477,683.067z"/>
			<path fill="#FF0000" d="M165.591,713.259l65.286,65.286l56.51-56.51L183.039,617.686c-16.691,21.321-34.783,43.44-52.561,65.38
				l32.653,32.653L165.591,713.259z"/>
			<path fill="#FF0000" d="M154.625,854.798l73.792-73.792l-65.286-65.286L25.951,852.899c2.708,30.002,41.135,42.06,60.769,54.115
				c20.899,6.971,43.785,1.99,57.715,18.92c0.241,0.302,0.458,0.613,0.672,0.925l40.79-40.789L154.625,854.798z"/>
			
				<rect x="195.264" y="700.968" transform="matrix(0.7071 -0.7071 0.7071 0.7071 -470.6012 358.1329)" width="3.48" height="92.328"/>
			
				<rect x="291.788" y="688.433" transform="matrix(0.7071 -0.7071 0.7071 0.7071 -405.7329 441.5639)" width="76.722" height="44.226"/>
			
				<rect x="234.81" y="743.813" transform="matrix(0.7071 -0.7071 0.7071 0.7071 -461.1136 418.6253)" width="79.917" height="44.226"/>
			
				<rect x="154.978" y="811.425" transform="matrix(0.7071 -0.7071 0.7071 0.7071 -528.7254 390.6196)" width="104.358" height="44.226"/>
			
				<rect x="243.543" y="773.299" transform="matrix(0.7071 -0.7071 0.7071 0.7071 -490.5987 406.4113)" width="3.48" height="44.226"/>
			<path fill="#FF0000" d="M176.835,1396.764l-23.714-23.714C160.202,1382.047,168.05,1389.931,176.835,1396.764z"/>
			<path d="M345.075,1278.219l-136.843,136.843c11.179,4.753,23.518,8.484,37.205,11.25c32.828,0,65.749,0.274,98.72,0.587
				l74.799-74.799L345.075,1278.219z"/>
			<path d="M539.317,1609.741c-0.046,3.989-0.18,7.988-0.391,11.996l6.194-6.194L539.317,1609.741z"/>
			<path d="M423.566,1356.71l-3.821-3.821l-74.026,74.026c3.625,0.034,7.249,0.069,10.874,0.104l-1.668-1.668L423.566,1356.71z"/>
			<path d="M418.956,1352.1l-74.799,74.799c0.521,0.005,1.041,0.01,1.562,0.015l74.026-74.026L418.956,1352.1z"/>
			
				<rect x="357.891" y="1204.675" transform="matrix(0.7071 -0.7071 0.7071 0.7071 -759.8258 679.4526)" width="164.735" height="104.484"/>
			
				<rect x="397.53" y="1293.854" transform="matrix(0.7071 -0.7071 0.7071 0.7071 -776.2452 719.0924)" fill="#FF0000" width="164.735" height="5.404"/>
			
				<rect x="395.226" y="1293.694" transform="matrix(0.7071 -0.7071 0.7071 0.7071 -775.2899 716.7863)" fill="#FF0000" width="164.735" height="1.115"/>
			<polygon points="614.208,1156.849 606.736,1149.377 627.024,1129.088 560.615,1062.679 537.813,1085.481 611.695,1159.362 			"/>
			
				<rect x="500.771" y="1100.825" transform="matrix(0.7071 -0.7071 0.7071 0.7071 -655.9756 722.4697)" width="86.677" height="104.484"/>
			
				<rect x="495.402" y="1138.951" transform="matrix(0.7071 -0.7071 0.7071 0.7071 -694.1005 706.6736)" fill="#FF0000" width="21.161" height="104.484"/>
			<polygon points="611.695,1159.362 612.483,1160.15 551.193,1221.44 555.014,1225.261 618.817,1161.458 614.208,1156.849 			"/>
			
				<rect x="538.105" y="1189.844" transform="matrix(0.7071 -0.7071 0.7071 0.7071 -671.4397 759.8032)" width="86.677" height="1.115"/>
			
				<rect x="535.042" y="1228.13" transform="matrix(0.7071 -0.7071 0.7071 0.7071 -710.5188 746.3104)" width="21.161" height="5.404"/>
			
				<rect x="532.737" y="1227.97" transform="matrix(0.7071 -0.7071 0.7071 0.7071 -709.566 744.0108)" fill="#FF0000" width="21.161" height="1.115"/>
			
				<rect x="591.131" y="1042.435" transform="matrix(0.7071 -0.7071 0.7071 0.7071 -594.4905 743.5594)" width="18.358" height="93.917"/>
			<polygon points="627.024,1129.088 606.736,1149.377 614.208,1156.849 625.379,1145.677 629.989,1150.287 639.106,1141.17 			"/>
			
				<rect x="614.199" y="1150.308" transform="matrix(0.7071 -0.7071 0.7071 0.7071 -633.4852 777.7552)" fill="#FF0000" width="15.799" height="6.519"/>
			
				<rect x="630.377" y="1120.096" transform="matrix(0.7071 -0.7071 0.7071 0.7071 -610.7481 782.811)" fill="#FF0000" width="18.358" height="17.086"/>
			<path d="M278.112,1211.255l-139.5,139.5c0.843,1.812,1.784,3.599,2.834,5.357c3.651,6.036,7.533,11.675,11.675,16.938
				l23.714,23.714c9.338,7.263,19.734,13.34,31.398,18.298l136.843-136.843L278.112,1211.255z"/>
			<path fill="#FF0000" d="M238.37,1171.513l116.485-116.485l-31.218-31.217l-163.751,163.751
				c3.349,9.292,4.246,19.139,0.965,29.639c-13.767,47.03-39.765,95.872-22.239,133.554l139.5-139.5L238.37,1171.513z"/>
			<path d="M283.354,983.526l-157.135,157.135c12.482,14.06,27.395,29.5,33.667,46.901l163.751-163.751L283.354,983.526z"/>
			
				<rect x="408.088" y="923.201" transform="matrix(0.7071 -0.7071 0.7071 0.7071 -541.4732 583.3181)" fill="#FF0000" width="50.605" height="44.148"/>
			
				<rect x="372.337" y="881.039" transform="matrix(0.7071 -0.7071 0.7071 0.7071 -526.6647 547.5673)" fill="#FF0000" width="50.605" height="56.97"/>
			
				<rect x="341.516" y="971.737" transform="matrix(0.7071 -0.7071 0.7071 0.7071 -590.0096 563.2136)" width="86.677" height="44.148"/>
			
				<rect x="305.765" y="929.576" transform="matrix(0.7071 -0.7071 0.7071 0.7071 -575.2012 527.4628)" fill="#FF0000" width="86.677" height="56.97"/>
			
				<rect x="336.147" y="1009.864" transform="matrix(0.7071 -0.7071 0.7071 0.7071 -628.136 547.4211)" fill="#FF0000" width="21.161" height="44.148"/>
			
				<rect x="300.397" y="967.702" transform="matrix(0.7071 -0.7071 0.7071 0.7071 -613.3275 511.6703)" width="21.161" height="56.97"/>
			
				<rect x="287.469" y="1139.144" transform="matrix(0.7071 -0.7071 0.7071 0.7071 -730.6556 609.0296)" fill="#FF0000" width="164.735" height="94.701"/>
			
				<rect x="234.116" y="1105.04" transform="matrix(0.7071 -0.7071 0.7071 0.7071 -708.5565 555.6773)" fill="#FF0000" width="164.735" height="56.204"/>
			<polygon fill="#FF0000" points="498.77,1000.834 511.751,987.853 506.633,982.734 470.85,1018.517 537.813,1085.481 
				560.615,1062.679 			"/>
			
				<rect x="443.568" y="952.653" transform="matrix(0.7071 -0.7071 0.7071 0.7071 -556.1694 618.7978)" width="50.605" height="56.204"/>
			
				<rect x="430.348" y="1035.293" transform="matrix(0.7071 -0.7071 0.7071 0.7071 -626.8051 652.0457)" fill="#FF0000" width="86.677" height="94.701"/>
			
				<rect x="376.995" y="1001.189" transform="matrix(0.7071 -0.7071 0.7071 0.7071 -604.7058 598.6934)" width="86.677" height="56.204"/>
			
				<rect x="424.98" y="1073.42" transform="matrix(0.7071 -0.7071 0.7071 0.7071 -664.9316 636.2537)" fill="#FF0000" width="21.161" height="94.701"/>
			
				<rect x="371.627" y="1039.316" transform="matrix(0.7071 -0.7071 0.7071 0.7071 -642.8322 582.9009)" fill="#FF0000" width="21.161" height="56.204"/>
			
				<rect x="527.004" y="981.535" transform="matrix(0.7071 -0.7071 0.7071 0.7071 -567.9297 679.4374)" width="18.358" height="87.462"/>
			
				<rect x="535.875" y="1579.164" transform="matrix(0.7071 -0.7071 0.7071 0.7071 -950.4398 877.8281)" width="97.072" height="14.062"/>
			<polygon points="787.371,1516.296 685.261,1618.405 623.703,1556.846 555.062,1625.487 558.038,1628.462 724.331,1628.462 
				811.934,1540.859 			"/>
			<polygon points="821.106,1550.031 811.934,1540.859 724.331,1628.462 897.484,1628.462 820.079,1551.057 			"/>
			<polygon points="820.079,1551.057 897.484,1628.462 899.537,1628.462 821.106,1550.031 			"/>
			
				<rect x="597.584" y="1493.789" transform="matrix(0.7071 -0.7071 0.7071 0.7071 -865.0645 913.1901)" fill="#FF0000" width="144.404" height="14.062"/>
			
				<rect x="633.334" y="1493.043" transform="matrix(0.7071 -0.7071 0.7071 0.7071 -879.8723 948.9394)" width="144.404" height="87.057"/>
			
				<rect x="730.823" y="1155.991" transform="matrix(0.7071 -0.7071 0.7071 0.7071 -620.6273 889.0139)" fill="#FF0000" width="63.996" height="75.358"/>
			
				<rect x="763.809" y="1081.126" transform="matrix(0.7071 -0.7071 0.7071 0.7071 -545.7622 920.0241)" fill="#FF0000" width="147.754" height="75.358"/>
			
				<rect x="673.448" y="1092.833" transform="matrix(0.7071 -0.7071 0.7071 0.7071 -596.8616 831.6384)" fill="#FF0000" width="63.996" height="86.924"/>
			<polygon points="755.872,1024.404 697.339,1082.936 758.804,1144.401 863.282,1039.923 842.24,1018.882 796.295,1064.827 			"/>
			
				<rect x="766.568" y="993.059" transform="matrix(0.7071 -0.7071 0.7071 0.7071 -488.3725 864.2511)" fill="#FF0000" width="64.977" height="57.167"/>
			<path fill="#FF0000" d="M613.76,1546.903l-20.732-20.731l-54.831,54.831c0.86,9.521,1.232,19.1,1.12,28.738l5.802,5.803
				L613.76,1546.903z"/>
			<path fill="#FF0000" d="M423.566,1356.71l-68.64,68.64l1.668,1.668c23.828,0.231,47.681,0.467,71.544,0.622
				c33.999,0.221,64.925,19.568,80.147,49.97c16.84,33.633,26.726,68.108,29.912,103.393l54.831-54.831L423.566,1356.71z"/>
			
				<rect x="629.908" y="1243.789" transform="matrix(0.7071 -0.7071 0.7071 0.7071 -708.4243 852.6458)" fill="#FF0000" width="90.231" height="75.358"/>
			
				<rect x="582.246" y="1470.823" transform="matrix(0.7071 -0.7071 0.7071 0.7071 -858.7115 897.8528)" fill="#FF0000" width="144.404" height="29.319"/>
			<polygon points="640.426,1369.351 669.765,1340.012 616.479,1286.726 601.516,1301.689 540.051,1240.224 423.566,1356.71 
				593.028,1526.172 695.137,1424.063 			"/>
			
				<rect x="572.533" y="1180.63" transform="matrix(0.7071 -0.7071 0.7071 0.7071 -684.6594 795.2728)" fill="#FF0000" width="90.231" height="86.925"/>
			
				<rect x="567.685" y="1220.013" transform="matrix(0.7071 -0.7071 0.7071 0.7071 -724.0419 778.9586)" fill="#FF0000" width="21.161" height="86.924"/>
			
				<rect x="716.208" y="1196.157" transform="matrix(0.7071 -0.7071 0.7071 0.7071 -660.7908 872.3674)" fill="#FF0000" width="12.894" height="75.358"/>
			
				<rect x="704.612" y="1206.302" transform="matrix(0.7071 -0.7071 0.7071 0.7071 -670.9395 868.1824)" width="15.799" height="75.358"/>
			
				<rect x="724.525" y="1185.108" transform="matrix(0.7071 -0.7071 0.7071 0.7071 -649.7457 876.9599)" width="18.358" height="75.358"/>
			
				<rect x="658.833" y="1132.999" transform="matrix(0.7071 -0.7071 0.7071 0.7071 -637.0275 815.0012)" width="12.894" height="86.925"/>
			
				<rect x="647.236" y="1143.143" transform="matrix(0.7071 -0.7071 0.7071 0.7071 -647.1697 810.7922)" fill="#FF0000" width="15.799" height="86.925"/>
			
				<rect x="667.15" y="1121.949" transform="matrix(0.7071 -0.7071 0.7071 0.7071 -625.9783 819.5779)" fill="#FF0000" width="18.358" height="86.925"/>
			<polygon points="1045.597,1628.462 1045.789,1628.462 1045.693,1628.366 			"/>
			<path d="M1236.627,1413.268l12.081,12.081l-67.346,67.346l114.751,114.751l16.365-16.365
				c-10.315-51.772-20.783-110.866-29.571-168.758l-27.668-27.668L1236.627,1413.268z"/>
			<path d="M1282.908,1422.323c-2.471-16.279-4.809-32.462-6.974-48.362l-20.694,20.694L1282.908,1422.323z"/>
			<polygon points="1181.363,1492.696 1045.693,1628.366 1045.789,1628.462 1275.099,1628.462 1296.114,1607.447 			"/>
			<path d="M1185.476,1207.911l80.331,80.331c-5.732-59.484-7.033-107.613-0.868-130.289c0.737-2.79,1.526-5.559,2.348-8.314
				l-11.769-11.769L1185.476,1207.911z"/>
			
				<rect x="1168.645" y="1249.145" transform="matrix(0.7071 -0.7071 0.7071 0.7071 -601.2631 1228.0919)" fill="#FF0000" width="26.323" height="181.379"/>
			<path fill="#FF0000" d="M1126.986,1266.401l128.254,128.255l20.694-20.694c-3.858-28.339-7.165-55.773-9.688-81.229
				l-82.796-82.796L1126.986,1266.401z"/>
			<path d="M1183.45,1209.937l82.796,82.796c-0.149-1.504-0.295-3-0.439-4.49l-80.331-80.331L1183.45,1209.937z"/>
			
				<rect x="989.048" y="999.958" transform="matrix(0.7071 -0.7071 0.7071 0.7071 -404.9916 1033.0994)" width="111.022" height="10.914"/>
			
				<rect x="1071.939" y="1225.76" transform="matrix(0.7071 -0.7071 0.7071 0.7071 -561.2063 1131.3861)" width="26.323" height="34.738"/>
			<polygon fill="#FF0000" points="1132.153,1171.513 1082.125,1221.541 1106.689,1246.104 1163.153,1189.64 1019.844,1046.331 
				1091.911,974.264 1087.669,970.022 1009.165,1048.526 			"/>
			<polygon fill="#FF0000" points="1163.153,1189.64 1165.179,1187.614 1174.351,1196.785 1244.392,1126.744 1091.911,974.264 
				1019.844,1046.331 			"/>
			
				<rect x="1088.807" y="1253.511" transform="matrix(0.7071 -0.7071 0.7071 0.7071 -568.1931 1148.2537)" width="26.323" height="12.97"/>
			
				<rect x="1099.581" y="1215.973" transform="matrix(0.7071 -0.7071 0.7071 0.7071 -530.6544 1163.8027)" fill="#FF0000" width="79.853" height="12.97"/>
			
				<rect x="1167.32" y="1186.728" transform="matrix(0.7071 -0.7071 0.7071 0.7071 -501.4091 1175.9054)" fill="#FF0000" width="2.865" height="12.97"/>
			
				<rect x="1165.407" y="1159.461" transform="matrix(0.7071 -0.7071 0.7071 0.7071 -469.5793 1200.9904)" width="99.053" height="15.734"/>
			
				<rect x="1098.955" y="1262.278" transform="matrix(0.7071 -0.7071 0.7071 0.7071 -572.3967 1158.402)" fill="#FF0000" width="26.323" height="15.734"/>
			
				<rect x="1109.729" y="1224.74" transform="matrix(0.7071 -0.7071 0.7071 0.7071 -534.8583 1173.9603)" fill="#FF0000" width="79.853" height="15.734"/>
			
				<rect x="1177.468" y="1195.494" transform="matrix(0.7071 -0.7071 0.7071 0.7071 -505.6128 1186.0648)" fill="#FF0000" width="2.865" height="15.734"/>
			
				<rect x="977.069" y="981.954" transform="matrix(0.7071 -0.7071 0.7071 0.7071 -400.0301 1021.1152)" width="111.022" height="22.966"/>
			
				<rect x="932.811" y="1098.544" transform="matrix(0.7071 -0.7071 0.7071 0.7071 -503.5779 992.2628)" width="26.323" height="10.914"/>
			
				<rect x="944.918" y="1064.224" transform="matrix(0.7071 -0.7071 0.7071 0.7071 -469.2573 1006.4721)" fill="#FF0000" width="70.749" height="10.914"/>
			
				<rect x="998.164" y="1082.388" transform="matrix(0.7071 -0.7071 0.7071 0.7071 -530.6475 1057.6106)" width="26.323" height="173.931"/>
			
				<rect x="1010.271" y="1048.068" transform="matrix(0.7071 -0.7071 0.7071 0.7071 -496.3272 1071.8246)" width="70.749" height="173.931"/>
			
				<rect x="920.833" y="1080.54" transform="matrix(0.7071 -0.7071 0.7071 0.7071 -498.6156 980.275)" width="26.323" height="22.966"/>
			
				<rect x="932.94" y="1046.22" transform="matrix(0.7071 -0.7071 0.7071 0.7071 -464.2961 994.5009)" fill="#FF0000" width="70.749" height="22.966"/>
			<path fill="#FF0000" d="M1278.096,1115.291l1.249,1.249c0.205-0.479,0.406-0.961,0.613-1.439l-0.836-0.836L1278.096,1115.291z"/>
			<path d="M1255.517,1137.87l11.769,11.769c3.374-11.315,7.443-22.335,12.058-33.099l-1.249-1.249L1255.517,1137.87z"/>
			
				<rect x="1078.922" y="948.903" transform="matrix(0.7071 -0.7071 0.7071 0.7071 -353.9367 1054.2468)" width="33.383" height="10.914"/>
			
				<rect x="1084.902" y="957.341" transform="matrix(0.7071 -0.7071 0.7071 0.7071 -356.414 1060.2209)" width="33.383" height="5.999"/>
			<polygon fill="#FF0000" points="1244.392,1126.744 1266.971,1104.165 1278.096,1115.291 1279.122,1114.265 1115.516,950.659 
				1091.911,974.264 			"/>
			
				<rect x="1245.278" y="1113.151" transform="matrix(0.7071 -0.7071 0.7071 0.7071 -423.2693 1220.1726)" fill="#FF0000" width="31.931" height="15.734"/>
			
				<rect x="1066.943" y="930.899" transform="matrix(0.7071 -0.7071 0.7071 0.7071 -348.9755 1042.2627)" fill="#FF0000" width="33.383" height="22.966"/>
			
				<rect x="784.507" y="1474.645" transform="matrix(0.7071 -0.7071 0.7071 0.7071 -810.0917 1028.2944)" fill="#FF0000" width="103.416" height="34.738"/>
			
				<rect x="801.375" y="1502.397" transform="matrix(0.7071 -0.7071 0.7071 0.7071 -817.0815 1045.1731)" fill="#FF0000" width="103.416" height="12.97"/>
			<polygon fill="#FF0000" points="1041.083,1623.756 1036.378,1628.462 1045.597,1628.462 1045.693,1628.366 			"/>
			<polygon fill="#FF0000" points="894.232,1476.905 821.106,1550.031 899.537,1628.462 1036.378,1628.462 1041.083,1623.756 			"/>
			
				<rect x="868.633" y="1428.074" transform="matrix(0.7071 -0.7071 0.7071 0.7071 -763.5216 1047.589)" width="28.307" height="34.738"/>
			
				<rect x="885.5" y="1455.826" transform="matrix(0.7071 -0.7071 0.7071 0.7071 -770.5049 1064.4421)" fill="#FF0000" width="28.307" height="12.97"/>
			
				<rect x="1161.374" y="1444.439" transform="matrix(0.7071 -0.7071 0.7071 0.7071 -673.3072 1280.4589)" fill="#FF0000" width="95.241" height="17.086"/>
			<polygon fill="#FF0000" points="1064.799,1585.097 1072.271,1592.569 1041.083,1623.756 1045.693,1628.366 1181.363,1492.696 
				1169.281,1480.614 			"/>
			<polygon points="1064.799,1585.097 1053.627,1596.268 914.248,1456.889 894.232,1476.905 1041.083,1623.756 1072.271,1592.569 
							"/>
			
				<rect x="705.695" y="1406.172" transform="matrix(0.7071 -0.7071 0.7071 0.7071 -777.4468 949.4826)" fill="#FF0000" width="103.416" height="14.062"/>
			
				<rect x="741.446" y="1405.425" transform="matrix(0.7071 -0.7071 0.7071 0.7071 -792.2552 985.2334)" width="103.416" height="87.057"/>
			
				<rect x="789.821" y="1359.601" transform="matrix(0.7071 -0.7071 0.7071 0.7071 -730.8769 968.7776)" fill="#FF0000" width="28.307" height="14.062"/>
			
				<rect x="825.572" y="1358.854" transform="matrix(0.7071 -0.7071 0.7071 0.7071 -745.6854 1004.5286)" width="28.307" height="87.057"/>
			
				<rect x="902.078" y="1402.336" transform="matrix(0.7071 -0.7071 0.7071 0.7071 -737.7852 1058.2568)" fill="#FF0000" width="12.893" height="34.738"/>
			
				<rect x="890.481" y="1412.481" transform="matrix(0.7071 -0.7071 0.7071 0.7071 -747.9249 1054.0349)" fill="#FF0000" width="15.799" height="34.738"/>
			
				<rect x="918.945" y="1430.088" transform="matrix(0.7071 -0.7071 0.7071 0.7071 -744.7695 1075.1133)" width="12.893" height="12.97"/>
			
				<rect x="907.348" y="1440.232" transform="matrix(0.7071 -0.7071 0.7071 0.7071 -754.9158 1070.9207)" width="15.799" height="12.97"/>
			
				<rect x="1091.207" y="1292.125" transform="matrix(0.7071 -0.7071 0.7071 0.7071 -644.2425 1210.2893)" width="95.241" height="181.379"/>
			<polygon fill="#FF0000" points="934.536,1436.6 925.419,1445.717 1064.799,1585.097 1169.281,1480.614 1041.027,1352.36 
				945.661,1447.725 			"/>
			
				<rect x="981.624" y="1422.436" transform="matrix(0.7071 -0.7071 0.7071 0.7071 -785.6796 1145.187)" fill="#FF0000" width="15.799" height="197.113"/>
			
				<rect x="994.501" y="1268.739" transform="matrix(0.7071 -0.7071 0.7071 0.7071 -604.1857 1113.5835)" fill="#FF0000" width="95.241" height="34.738"/>
			
				<rect x="893.332" y="1350.095" transform="matrix(0.7071 -0.7071 0.7071 0.7071 -685.5421 1079.889)" width="134.867" height="34.738"/>
			
				<rect x="1011.368" y="1296.491" transform="matrix(0.7071 -0.7071 0.7071 0.7071 -611.1724 1130.451)" fill="#FF0000" width="95.241" height="12.97"/>
			
				<rect x="910.2" y="1377.846" transform="matrix(0.7071 -0.7071 0.7071 0.7071 -692.5281 1096.7524)" fill="#FF0000" width="134.867" height="12.97"/>
			
				<rect x="1021.517" y="1305.257" transform="matrix(0.7071 -0.7071 0.7071 0.7071 -615.3759 1140.5979)" width="95.241" height="15.734"/>
			
				<rect x="920.348" y="1386.613" transform="matrix(0.7071 -0.7071 0.7071 0.7071 -696.7318 1106.9008)" width="134.867" height="15.733"/>
			
				<rect x="823.266" y="1333.863" transform="matrix(0.7071 -0.7071 0.7071 0.7071 -705.1378 979.4339)" width="12.894" height="14.062"/>
			
				<rect x="811.669" y="1344.007" transform="matrix(0.7071 -0.7071 0.7071 0.7071 -715.28 975.2236)" width="15.799" height="14.062"/>
			
				<rect x="859.016" y="1333.116" transform="matrix(0.7071 -0.7071 0.7071 0.7071 -719.9487 1015.1953)" width="12.893" height="87.057"/>
			
				<rect x="847.42" y="1343.26" transform="matrix(0.7071 -0.7071 0.7071 0.7071 -730.0909 1010.9844)" width="15.799" height="87.057"/>
			<polygon fill="#FF0000" points="828.329,1213.926 812.09,1197.687 766.838,1242.94 790.795,1266.896 940.525,1117.166 
				932.807,1109.448 			"/>
			<polygon fill="#FF0000" points="842.281,1318.382 829.299,1331.363 839.242,1341.307 934.608,1245.941 996.167,1307.499 
				1063.512,1240.154 940.525,1117.166 790.795,1266.896 			"/>
			
				<rect x="850.271" y="1280.875" transform="matrix(0.7071 -0.7071 0.7071 0.7071 -667.7047 1036.8221)" width="134.867" height="87.057"/>
			
				<rect x="798.572" y="1142.085" transform="matrix(0.7071 -0.7071 0.7071 0.7071 -560.1614 954.7867)" fill="#FF0000" width="147.754" height="22.966"/>
			<polygon fill="#FF0000" points="737.509,1320.182 757.525,1300.166 733.568,1276.209 669.765,1340.012 724.476,1394.724 
				695.137,1424.063 715.869,1444.794 788.995,1371.668 			"/>
			
				<rect x="661.705" y="1343.351" transform="matrix(0.7071 -0.7071 0.7071 0.7071 -777.3627 887.3553)" fill="#FF0000" width="41.492" height="77.373"/>
			
				<rect x="759.107" y="1299.511" transform="matrix(0.7071 -0.7071 0.7071 0.7071 -718.1545 938.063)" width="28.307" height="72.812"/>
			
				<rect x="754.83" y="1255.518" transform="matrix(0.7071 -0.7071 0.7071 0.7071 -676.7932 911.0077)" fill="#FF0000" width="12.893" height="33.88"/>
			
				<rect x="743.233" y="1265.662" transform="matrix(0.7071 -0.7071 0.7071 0.7071 -686.9329 906.7883)" fill="#FF0000" width="15.799" height="33.88"/>
			
				<rect x="792.551" y="1273.773" transform="matrix(0.7071 -0.7071 0.7071 0.7071 -692.4178 948.7294)" fill="#FF0000" width="12.893" height="72.812"/>
			
				<rect x="780.954" y="1283.917" transform="matrix(0.7071 -0.7071 0.7071 0.7071 -702.5592 944.5157)" fill="#FF0000" width="15.799" height="72.812"/>
			
				<rect x="763.147" y="1244.469" transform="matrix(0.7071 -0.7071 0.7071 0.7071 -665.7399 915.5681)" fill="#FF0000" width="18.358" height="33.88"/>
			
				<rect x="800.868" y="1262.724" transform="matrix(0.7071 -0.7071 0.7071 0.7071 -681.3646 953.2891)" fill="#FF0000" width="18.358" height="72.812"/>
		</g>
	</g>
</g>
</svg>
